:SAMPLES-PER-SECOND 30
:FULLY-SPECIFIED
:DEGREES
199
root  9.10374 18.5956 -43.9394 -121.391 4.77542 -179.034
RightUpLeg  -43.338 3.40056 12.6512
RightLeg  92.5867 17.3375 -13.867
RightFoot  -3.67177 0.140566 -1.64549
RightToes  -5.82073e-011 -3.18055e-015 -2.98177e-016
Spine  32.3705 -1.74798 3.67965
Spine1  -3.7087 1.88882 -23.2465
HEad  -22.5746 -4.19575 -14.7665
LeftShoulder1  -3.88251e-019 9.70628e-020 -3.87848e-018
LeftArm  -5.3612 -20.4406 -65.1068
LeftForeArm  23.1929 -4.76718 -5.94329
LeftHand  -12.3307 -11.4258 74.9247
RightShoulder  1.44871 6.26529 5.83158
RightArm  -2.29021 23.8374 63.174
RightForeArm  -12.0399 11.5829 -9.86061
RightHand  -8.15478 7.28468 -65.9518
LeftUpLeg  -74.528 6.93757 -7.20874
LeftLeg  125.198 -21.165 10.518
LeftFoot  -25.5669 -0.841579 -7.15186
LeftToes  -3.44176e-011 4.05998e-011 -5.21293e-012
200
root  9.06774 18.4012 -44.4619 -120.944 5.39087 -178.121
RightUpLeg  -41.8538 4.17554 12.3394
RightLeg  91.0856 16.9797 -13.738
RightFoot  -4.02443 0.13012 -1.53817
RightToes  -5.82073e-011 -3.18055e-015 -2.98177e-016
Spine  30.7425 -2.20969 4.76441
Spine1  -3.19141 1.94328 -24.7055
HEad  -23.6591 -2.72532 -13.2499
LeftShoulder1  -3.88251e-019 9.70628e-020 -3.87848e-018
LeftArm  -5.15063 -17.3178 -63.2874
LeftForeArm  22.5426 -6.47971 -5.71985
LeftHand  -12.396 -11.4876 75.0094
RightShoulder  1.34026 6.1958 5.09626
RightArm  -1.63676 22.9035 66.345
RightForeArm  -11.137 10.7973 -9.67702
RightHand  -8.56249 7.57232 -67.3531
LeftUpLeg  -76.1952 6.74637 -8.18993
LeftLeg  124.428 -23.3408 13.5105
LeftFoot  -17.3817 -0.401918 -9.46559
LeftToes  -3.44176e-011 4.05998e-011 -5.21293e-012
201
root  8.94931 18.2035 -45.0003 -119.908 5.8774 -177.129
RightUpLeg  -40.9379 4.78702 11.9804
RightLeg  89.3441 16.5771 -13.6299
RightFoot  -4.15805 0.0987774 -1.16338
RightToes  -5.82073e-011 -3.18055e-015 -2.98177e-016
Spine  28.8484 -2.71181 6.17422
Spine1  -3.28111 1.83397 -25.9995
HEad  -23.9296 -1.01443 -11.3968
LeftShoulder1  -3.88251e-019 9.70628e-020 -3.87848e-018
LeftArm  -4.77509 -14.0066 -61.5734
LeftForeArm  21.8616 -7.37116 -5.87481
LeftHand  -12.5169 -11.5252 75.4229
RightShoulder  1.42413 6.53318 5.32872
RightArm  -0.885245 22.1591 69.1618
RightForeArm  -9.45393 9.781 -9.36324
RightHand  -9.0307 8.0083 -68.44
LeftUpLeg  -77.151 6.70624 -9.31809
LeftLeg  122.845 -25.2919 16.6777
LeftFoot  -11.6908 0.105049 -11.5733
LeftToes  -3.44176e-011 4.05998e-011 -5.21293e-012
202
root  8.80875 18.1332 -45.5737 -119.647 6.56288 -176.542
RightUpLeg  -39.2643 4.92481 11.2503
RightLeg  87.0968 16.0925 -13.9849
RightFoot  -4.30151 0.0276345 -0.251963
RightToes  -5.82073e-011 -3.18055e-015 -2.98177e-016
Spine  28.4942 -2.93919 6.42273
Spine1  -3.79089 1.51128 -25.6653
HEad  -24.3983 0.665534 -9.55495
LeftShoulder1  -3.88251e-019 9.70628e-020 -3.87848e-018
LeftArm  -4.88454 -10.9444 -60.6799
LeftForeArm  21.2047 -7.00834 -5.9535
LeftHand  -12.6967 -11.5552 76.1212
RightShoulder  1.57137 6.83853 6.0554
RightArm  0.248367 21.8634 71.3986
RightForeArm  -7.37404 8.94929 -8.75323
RightHand  -9.49406 8.41527 -69.5327
LeftUpLeg  -76.1319 7.14223 -10.8238
LeftLeg  120.682 -26.3022 19.1698
LeftFoot  -9.57284 0.380811 -13.2547
LeftToes  -3.44176e-011 4.05998e-011 -5.21293e-012
203
root  8.70496 18.163 -46.1789 -119.989 7.10809 -177.418
RightUpLeg  -37.153 3.79681 9.89053
RightLeg  84.6955 15.5476 -14.4194
RightFoot  -4.9 -0.0536093 0.862357
RightToes  -5.82073e-011 -3.18055e-015 -2.98177e-016
Spine  29.197 -3.12888 4.69967
Spine1  -4.47047 0.397953 -22.6253
HEad  -25.1874 2.77776 -7.78466
LeftShoulder1  -3.88251e-019 9.70628e-020 -3.87848e-018
LeftArm  -5.16983 -7.45306 -60.1977
LeftForeArm  20.3875 -6.83421 -5.88829
LeftHand  -12.6929 -11.554 76.107
RightShoulder  1.63442 6.91582 6.4193
RightArm  1.51465 21.6502 73.59
RightForeArm  -5.04772 8.3012 -7.96139
RightHand  -9.87098 8.67295 -70.6482
LeftUpLeg  -74.0727 6.97393 -12.7752
LeftLeg  118.3 -26.4442 20.8639
LeftFoot  -8.94726 0.502961 -14.4966
LeftToes  -3.44176e-011 4.05998e-011 -5.21293e-012
